# xmcd
#
# Track frame offsets:
#	20123
#	41050
#	57445
#	81459
#	100004
#	127460
#	156145
#	176391
#	188095
#	206490
#	226122
#
# Disc length: 3308 seconds
# Revision: 0
# Processed by: cddbd v1.5.2PL0 Copyright (c) Steve Scherf et al.
# Submitted via: dBpowerAMP V12.0
#
DISCID=a10be00b
DTITLE=Jerry Douglas - Glide
DYEAR=2008
DGENRE=Bluegrass
TTITLE0=Bounce
TTITLE1=Glide
TTITLE2=Marriage Made in Hollywood
TTITLE3=Route Irish
TTITLE4=Sway Sur La Rue Royale
TTITLE5=Unfolding
TTITLE6=Long Hard Road (The Sharecropper's Dream)
TTITLE7=Home Sweet Home
TTITLE8=Two Small Cars in Rome
TTITLE9=Trouble on Alum
TTITLE10=Pushed Too Far
EXTD=
EXTT0=
EXTT1=
EXTT2=
EXTT3=
EXTT4=
EXTT5=
EXTT6=
EXTT7=
EXTT8=
EXTT9=
EXTT10=
PLAYORDER=
